<svg width="25" height="25" viewBox="0 0 25 25" fill="none" xmlns="http://www.w3.org/2000/svg">
<path fill-rule="evenodd" clip-rule="evenodd" d="M7.90828 0.297093C8.98445 0.146761 10.5377 0 12.5006 0C14.4633 0 16.0166 0.146761 17.0928 0.297093C18.4891 0.492135 19.5308 1.57109 19.6927 2.94374C19.7027 3.02854 19.7128 3.11658 19.7228 3.2079C19.726 3.23741 19.7276 3.26707 19.7276 3.29676V3.66092C17.9884 3.61123 15.6217 3.57149 12.5 3.57149C9.43206 3.57149 7.0535 3.60988 5.27344 3.6583V3.29676C5.27344 3.26708 5.27506 3.23741 5.27828 3.2079C5.28833 3.11658 5.29833 3.02853 5.30833 2.94374C5.47022 1.57109 6.512 0.492135 7.90828 0.297093ZM12.5 4.94514C16.8756 4.94514 19.8357 5.0235 21.6475 5.09685C23.3857 5.16712 24.7848 6.49506 24.8848 8.22899C24.9464 9.2983 25 10.7047 25 12.3629C25 14.0212 24.9464 15.4275 24.8847 16.4963C24.7848 18.2293 23.387 19.5567 21.6497 19.6276C21.3794 19.6386 21.0835 19.6498 20.7611 19.6607C20.7876 18.5529 20.8098 17.2322 20.8221 15.6749C20.8227 15.6021 20.8214 15.5294 20.8184 15.4572C20.8 15.0186 20.6054 14.6054 20.2779 14.3091C19.9503 14.0128 19.5168 13.8581 19.0734 13.8791C17.4772 13.9547 15.3358 14.0111 12.5004 14.0111C9.66372 14.0111 7.52172 13.9546 5.92528 13.879C5.48189 13.858 5.04839 14.0127 4.72081 14.309C4.39323 14.6053 4.19867 15.0185 4.18027 15.4571C4.17723 15.5294 4.17599 15.6021 4.17657 15.6751C4.18899 17.2322 4.21131 18.5529 4.23804 19.6607C3.91601 19.6497 3.62038 19.6386 3.3503 19.6276C1.61299 19.5567 0.215222 18.2293 0.115272 16.4963C0.0536222 15.4275 0 14.0212 0 12.3629C0 10.5325 0.129267 9.00455 0.268111 7.89107C0.466889 6.29692 1.79649 5.17168 3.37121 5.10295C5.09 5.02789 8.00422 4.94514 12.5 4.94514ZM18.6111 9.34082C18.1509 9.34082 17.7778 9.70984 17.7778 10.165C17.7778 10.6202 18.1509 10.9892 18.6111 10.9892H19.1667C19.6269 10.9892 20 10.6202 20 10.165C20 9.70984 19.6269 9.34082 19.1667 9.34082H18.6111ZM12.5004 15.6595C9.64194 15.6595 7.47294 15.6026 5.8455 15.5255C5.84361 15.5707 5.84283 15.6163 5.84317 15.662C5.86872 18.8648 5.93628 21.0534 5.99722 22.4387C6.04878 23.6108 6.88856 24.5757 8.06494 24.7266C9.16233 24.8675 10.6783 25 12.4993 25C14.3199 25 15.8361 24.8676 16.9339 24.7268C18.1112 24.5757 18.9516 23.6099 19.0027 22.4369C19.0632 21.0515 19.1302 18.8634 19.1555 15.662C19.1558 15.6163 19.1551 15.5708 19.1532 15.5255C17.526 15.6026 15.3576 15.6595 12.5004 15.6595ZM9.16667 17.5827C8.70644 17.5827 8.33333 17.9517 8.33333 18.4069C8.33333 18.8621 8.70644 19.2311 9.16667 19.2311H15.8333C16.2936 19.2311 16.6667 18.8621 16.6667 18.4069C16.6667 17.9517 16.2936 17.5827 15.8333 17.5827H9.16667ZM8.33333 21.7037C8.33333 21.2485 8.70644 20.8795 9.16667 20.8795H15.8333C16.2936 20.8795 16.6667 21.2485 16.6667 21.7037C16.6667 22.1589 16.2936 22.5279 15.8333 22.5279H9.16667C8.70644 22.5279 8.33333 22.1589 8.33333 21.7037Z" fill="white"/>
</svg>
