<svg width="26" height="30" viewBox="0 0 26 30" fill="none" xmlns="http://www.w3.org/2000/svg">
<g filter="url(#filter0_d_22_231)">
<path d="M10 17V18C10 18.394 10.0776 18.7841 10.2284 19.1481C10.3791 19.512 10.6001 19.8427 10.8787 20.1213C11.1573 20.3999 11.488 20.6209 11.8519 20.7716C12.2159 20.9224 12.606 21 13 21C13.394 21 13.7841 20.9224 14.1481 20.7716C14.512 20.6209 14.8427 20.3999 15.1213 20.1213C15.3999 19.8427 15.6209 19.512 15.7716 19.1481C15.9224 18.7841 16 18.394 16 18V17M19 9C19 12 21 17 21 17H5C5 17 7 13 7 9C7 5.732 9.732 3 13 3C16.268 3 19 5.732 19 9Z" stroke="white" stroke-width="1.5" stroke-linecap="round" stroke-linejoin="round"/>
</g>
<defs>
<filter id="filter0_d_22_231" x="-3" y="0" width="32" height="32" filterUnits="userSpaceOnUse" color-interpolation-filters="sRGB">
<feFlood flood-opacity="0" result="BackgroundImageFix"/>
<feColorMatrix in="SourceAlpha" type="matrix" values="0 0 0 0 0 0 0 0 0 0 0 0 0 0 0 0 0 0 127 0" result="hardAlpha"/>
<feOffset dy="4"/>
<feGaussianBlur stdDeviation="2"/>
<feComposite in2="hardAlpha" operator="out"/>
<feColorMatrix type="matrix" values="0 0 0 0 0 0 0 0 0 0 0 0 0 0 0 0 0 0 0.25 0"/>
<feBlend mode="normal" in2="BackgroundImageFix" result="effect1_dropShadow_22_231"/>
<feBlend mode="normal" in="SourceGraphic" in2="effect1_dropShadow_22_231" result="shape"/>
</filter>
</defs>
</svg>
