<svg width="22.14" height="22.14" viewBox="4.9 3.9 22.14 22.14" fill="none" xmlns="http://www.w3.org/2000/svg">
<g opacity="0.25" filter="url(#filter0_f_52_935)">
<rect x="5.51965" y="15" width="20.4367" height="12.7729" rx="6.38646" fill="url(#paint0_linear_52_935)"/>
</g>
<rect x="4.90002" y="3.89996" width="22.1397" height="22.1397" rx="11.0699" fill="url(#paint1_linear_52_935)"/>
<g filter="url(#filter1_i_52_935)">
<path d="M10.8182 19.2022H12.7273V14.5658L10 12.5204V18.384C10 18.8367 10.3668 19.2022 10.8182 19.2022Z" fill="#4285F4"/>
<path d="M19.2727 19.2022H21.1818C21.6345 19.2022 22 18.8354 22 18.384V12.5204L19.2727 14.5658" fill="#34A853"/>
<path d="M19.2727 11.0205V14.5659L22 12.5205V11.4295C22 10.4177 20.845 9.84091 20.0363 10.4477" fill="#FBBC04"/>
<path d="M12.7273 14.5658V11.0204L16 13.4749L19.2727 11.0204V14.5658L16 17.0204" fill="#EA4335"/>
<path d="M10 11.4295V12.5205L12.7273 14.5659V11.0205L11.9636 10.4477C11.1536 9.84091 10 10.4177 10 11.4295Z" fill="#C5221F"/>
</g>
<defs>
<filter id="filter0_f_52_935" x="0.0596533" y="9.54" width="31.3566" height="23.6929" filterUnits="userSpaceOnUse" color-interpolation-filters="sRGB">
<feFlood flood-opacity="0" result="BackgroundImageFix"/>
<feBlend mode="normal" in="SourceGraphic" in2="BackgroundImageFix" result="shape"/>
<feGaussianBlur stdDeviation="2.73" result="effect1_foregroundBlur_52_935"/>
</filter>
<filter id="filter1_i_52_935" x="9.09998" y="8.09998" width="13.5" height="14" filterUnits="userSpaceOnUse" color-interpolation-filters="sRGB">
<feFlood flood-opacity="0" result="BackgroundImageFix"/>
<feBlend mode="normal" in="SourceGraphic" in2="BackgroundImageFix" result="shape"/>
<feColorMatrix in="SourceAlpha" type="matrix" values="0 0 0 0 0 0 0 0 0 0 0 0 0 0 0 0 0 0 127 0" result="hardAlpha"/>
<feOffset dy="0.5"/>
<feGaussianBlur stdDeviation="1.25"/>
<feComposite in2="hardAlpha" operator="arithmetic" k2="-1" k3="1"/>
<feColorMatrix type="matrix" values="0 0 0 0 0 0 0 0 0 0 0 0 0 0 0 0 0 0 0.1 0"/>
<feBlend mode="normal" in2="shape" result="effect1_innerShadow_52_935"/>
</filter>
<linearGradient id="paint0_linear_52_935" x1="17.1504" y1="28.1538" x2="12.9847" y2="13.4713" gradientUnits="userSpaceOnUse">
<stop/>
<stop offset="1" stop-color="#323232"/>
</linearGradient>
<linearGradient id="paint1_linear_52_935" x1="17.5" y1="26.7" x2="7.15002" y2="3.89996" gradientUnits="userSpaceOnUse">
<stop stop-color="white"/>
<stop offset="1" stop-color="white"/>
</linearGradient>
</defs>
</svg>
