<svg width="19" height="16" viewBox="0 0 19 16" fill="none" xmlns="http://www.w3.org/2000/svg">
<path fill-rule="evenodd" clip-rule="evenodd" d="M10.8422 2C8.04388 2 5.70444 3.81023 4.94456 6.27061L6.82396 5.35164L7.7025 7.14836L3.43642 9.23434L0.248047 5.59663L1.7521 4.27837L3.01871 5.72348C4.02066 2.40376 7.15776 0 10.8422 0C15.3265 0 19.0001 3.56081 19.0001 8C19.0001 12.4392 15.3265 16 10.8422 16C8.76291 16 6.67587 15.2238 5.08161 13.6647L6.47996 12.2348C7.68103 13.4094 9.25772 14 10.8422 14C14.2642 14 17.0001 11.2928 17.0001 8C17.0001 4.7072 14.2642 2 10.8422 2Z" fill="#0B99C9"/>
</svg>
