<svg width="22.14" height="22.14" viewBox="4.9 3.9 22.14 22.14" fill="none" xmlns="http://www.w3.org/2000/svg">
<g opacity="0.25" filter="url(#filter0_f_52_926)">
<rect x="5.51965" y="15" width="20.4367" height="12.7729" rx="6.38646" fill="url(#paint0_linear_52_926)"/>
</g>
<rect x="4.90002" y="3.89996" width="22.1397" height="22.1397" rx="11.0699" fill="url(#paint1_linear_52_926)"/>
<g clip-path="url(#clip0_52_926)" filter="url(#filter1_i_52_926)">
<path d="M9.09998 21.6L10.0677 18.0017C9.28726 16.6 9.0393 14.9643 9.36934 13.3948C9.69938 11.8253 10.5853 10.4273 11.8645 9.45728C13.1437 8.48725 14.7303 8.01028 16.3333 8.11391C17.9364 8.21754 19.4482 8.89481 20.5914 10.0214C21.7346 11.1481 22.4325 12.6485 22.557 14.2474C22.6815 15.8462 22.2243 17.4363 21.2693 18.7259C20.3143 20.0154 18.9256 20.9178 17.3579 21.2676C15.7902 21.6174 14.1487 21.391 12.7347 20.63L9.09998 21.6ZM12.91 19.2835L13.1347 19.4167C14.1589 20.0227 15.3552 20.2735 16.5371 20.13C17.719 19.9864 18.8201 19.4566 19.6688 18.6231C20.5176 17.7895 21.0663 16.6991 21.2295 15.5217C21.3927 14.3443 21.1612 13.146 20.5711 12.1137C19.9809 11.0814 19.0653 10.2729 17.9669 9.81439C16.8684 9.35583 15.6489 9.2729 14.4983 9.57853C13.3478 9.88416 12.3308 10.5612 11.6059 11.5041C10.881 12.447 10.4888 13.6028 10.4906 14.7914C10.4897 15.777 10.7627 16.7435 11.2793 17.5833L11.4203 17.8153L10.8792 19.8237L12.91 19.2835Z" fill="white"/>
<path fill-rule="evenodd" clip-rule="evenodd" d="M18.3658 15.7154C18.234 15.6093 18.0797 15.5346 17.9146 15.497C17.7496 15.4594 17.5781 15.46 17.4133 15.4986C17.1656 15.6013 17.0056 15.9892 16.8456 16.1832C16.8118 16.2297 16.7622 16.2623 16.7061 16.2749C16.65 16.2875 16.5912 16.2793 16.5408 16.2517C15.6341 15.8972 14.8742 15.247 14.3843 14.4069C14.3425 14.3545 14.3228 14.2879 14.3292 14.2212C14.3356 14.1545 14.3676 14.0929 14.4186 14.0494C14.5971 13.873 14.7281 13.6545 14.7996 13.4142C14.8155 13.149 14.7546 12.885 14.6244 12.6534C14.5236 12.3288 14.3319 12.0397 14.0719 11.8204C13.9378 11.7602 13.7891 11.74 13.6437 11.7623C13.4984 11.7846 13.3626 11.8483 13.2528 11.9459C13.0621 12.1102 12.9107 12.3151 12.8098 12.5455C12.7089 12.7759 12.6611 13.0259 12.6698 13.2772C12.6704 13.4183 12.6883 13.5589 12.7232 13.6956C12.8116 14.0242 12.9477 14.3382 13.127 14.6275C13.2564 14.8492 13.3976 15.0638 13.5499 15.2703C14.0451 15.9489 14.6674 16.525 15.3825 16.9668C15.7414 17.1912 16.1249 17.3738 16.5255 17.5107C16.9417 17.699 17.4012 17.7713 17.8552 17.7199C18.1139 17.6808 18.359 17.5788 18.5689 17.423C18.7789 17.2671 18.9472 17.0621 19.0592 16.826C19.1249 16.6834 19.1449 16.524 19.1163 16.3696C19.0477 16.0539 18.6248 15.8675 18.3658 15.7154Z" fill="white"/>
</g>
<defs>
<filter id="filter0_f_52_926" x="0.0596533" y="9.54" width="31.3566" height="23.6929" filterUnits="userSpaceOnUse" color-interpolation-filters="sRGB">
<feFlood flood-opacity="0" result="BackgroundImageFix"/>
<feBlend mode="normal" in="SourceGraphic" in2="BackgroundImageFix" result="shape"/>
<feGaussianBlur stdDeviation="2.73" result="effect1_foregroundBlur_52_926"/>
</filter>
<filter id="filter1_i_52_926" x="9.09998" y="8.09998" width="13.5" height="14" filterUnits="userSpaceOnUse" color-interpolation-filters="sRGB">
<feFlood flood-opacity="0" result="BackgroundImageFix"/>
<feBlend mode="normal" in="SourceGraphic" in2="BackgroundImageFix" result="shape"/>
<feColorMatrix in="SourceAlpha" type="matrix" values="0 0 0 0 0 0 0 0 0 0 0 0 0 0 0 0 0 0 127 0" result="hardAlpha"/>
<feOffset dy="0.5"/>
<feGaussianBlur stdDeviation="1.25"/>
<feComposite in2="hardAlpha" operator="arithmetic" k2="-1" k3="1"/>
<feColorMatrix type="matrix" values="0 0 0 0 0 0 0 0 0 0 0 0 0 0 0 0 0 0 0.1 0"/>
<feBlend mode="normal" in2="shape" result="effect1_innerShadow_52_926"/>
</filter>
<linearGradient id="paint0_linear_52_926" x1="17.1504" y1="28.1538" x2="12.9847" y2="13.4713" gradientUnits="userSpaceOnUse">
<stop stop-color="#00D95F"/>
<stop offset="1" stop-color="#07FF74"/>
</linearGradient>
<linearGradient id="paint1_linear_52_926" x1="17.5" y1="26.7" x2="7.15002" y2="3.89996" gradientUnits="userSpaceOnUse">
<stop stop-color="#00D95F"/>
<stop offset="1" stop-color="#07FF74"/>
</linearGradient>
<clipPath id="clip0_52_926">
<rect width="13.5" height="13.5" fill="white" transform="translate(9.09998 8.09998)"/>
</clipPath>
</defs>
</svg>
